<?xml version="1.0" encoding="utf-8"?>
<!-- Generator: Adobe Illustrator 27.3.1, SVG Export Plug-In . SVG Version: 6.00 Build 0)  -->
<svg version="1.1" id="Camada_3" xmlns="http://www.w3.org/2000/svg" xmlns:xlink="http://www.w3.org/1999/xlink" x="0px" y="0px"
	 viewBox="0 0 1920 1080" style="enable-background:new 0 0 1920 1080;" xml:space="preserve">
<style type="text/css">
	.st0{fill:#40B0E5;}
	.st1{fill:#F0D900;}
	.st2{fill:#D61116;}
	.st3{fill:#A9529A;}
	.st4{fill:#4AAD33;}
	.st5{opacity:0.22;}
	.st6{fill:#FFFFFF;}
	.st7{fill:#020203;}
</style>
<g id="CORES_LETRAS">
	<path class="st0" d="M497.22,667.39l38.66,77.41l-8.64,21.51l-5.84,14.54l-1.18,2.95l-31.66,11.26l-99.49,3.05l-17.44-140.12
		l21.47,9.29l1.49-40.29c-0.89-4.84-1.63-9.72-2.19-14.66l0-0.02l-58.99-65.05l-7.01,87.57l-11.05-2.81l-4.63,14.8l25.57,7.35
		l2.18,129.44l-25.63,5.9l-59.42-3.18l-39.88-41.41l8.39-99.27l33.94,1.25l-2.85-10.23c-24.31-86.93,27.82-202.9,28.34-204.06
		l6.35-13.91l-37.17,7.74l10.76-74.39l94.35,23.07l-3.23,37.42l-32.94,10.31l38.61,44.53c2.47,5.8,7.67,19.3,8.09,26.82l1.33,23.6
		l28.23-43.34l1.46-39.63l-11.14,4.57c-4.95,2.04-14.47,6.35-21.32,11.98l-18.05-20.82l20.28-6.34l2.99-34.7l92.53,8.55l4.12,13.24
		l5.02,16.13l3.11,10.01l-16.87,3.69l0,0.02l-24.26,5.31l-9.38,2.06l3.39,6.64l1.17,2.31c0.25,0.49,0.51,1,0.75,1.53
		c0.56,1.17,1.12,2.45,1.69,3.8c0.23,0.57,0.47,1.17,0.72,1.8c0.01,0.06,0.04,0.13,0.07,0.19c0.17,0.41,0.33,0.83,0.5,1.27
		c0.31,0.82,0.64,1.67,0.95,2.53c0.15,0.44,0.32,0.9,0.48,1.35c0.32,0.9,0.65,1.82,0.95,2.77c0.03,0.05,0.04,0.09,0.06,0.14l0,0.02
		c15.75,46.9,33.02,150.07,37.71,179.18l-0.88,13.73L497.22,667.39z"/>
	<path class="st1" d="M719,665.47l0-0.02l-2.96-17.62l-34.64,7.18c-0.63,0.13-1.25,0.17-1.85,0.15c-3.39-0.13-6.39-2.47-7.24-5.9
		c-1.05-4.26,1.65-8.53,5.95-9.43l34.89-7.25l0-0.02c3.63-14.77,5.85-30.3,6.44-46.35c0.42-11.45,0-22.68-1.2-33.63l-0.36,0.03
		l-0.62-7.72l-0.02-0.2c-5.8-39.97-21.97-75.63-45.19-102.61c-1.9-2.21-3.86-4.36-5.86-6.45c-25.87-27.11-59.33-43.98-96.37-45.34
		c-31-1.14-60.32,8.74-85.34,26.72l9.93,31.95l-47.98,10.52c17.72,45.79,37.11,163.15,41.69,191.8l18.85,1.21l45.75,91.63
		l-7.31,18.21l-2.85,7.09c4.37,0.61,8.77,1.01,13.25,1.17c30.63,1.13,59.6-8.51,84.43-26.08l2.23,17.24l0.92,7.09l88.63-24.93
		L719,665.47z M583.33,584.1l32.54,32.66c3.02,3.03,3.01,7.94-0.02,10.97c-3.04,3.02-7.94,3.01-10.97-0.03L574.8,597.5
		c-3.26-3.27-8.65-2.97-11.53,0.63l-31.63,39.46c-2.68,3.33-7.56,3.86-10.9,1.2l0-0.02c-3.35-2.67-3.88-7.54-1.2-10.89l33.79-42.16
		c2.47-3.07,2.23-7.52-0.55-10.32l-41.15-41.29c-1.57-1.58-2.33-3.68-2.25-5.76c0.07-1.89,0.84-3.77,2.29-5.21
		c3.03-3.02,7.94-3.01,10.97,0.02l38.68,38.84c3.26,3.27,8.64,2.99,11.53-0.63l36.26-45.22c1.59-1.99,3.97-2.99,6.34-2.9
		c1.61,0.06,3.2,0.61,4.54,1.7c3.34,2.68,3.88,7.56,1.21,10.9l-38.42,47.91C580.31,576.87,580.55,581.3,583.33,584.1z"/>
	<path class="st0" d="M973.78,468.76l-62.41,46.07l-33.28-44.57l-33.17,21.44l-9.16,25.51l-31.91,12.54l14.63,43.83l-31.25,93.63
		l47.59,26.03l-3.93-30.46l33.07-9.55l20.85,63.05l-18.02,50.4l-78.81,20.5l-50.82-28.6l12.59-3.54l-8.09-48.22l0-0.12l-4.28-25.41
		l31.36-115.98l-14.54-35.66l-22.41,6.95c-0.02-0.22-0.06-0.42-0.1-0.64c-6.08-35.34-19.97-68.12-40.73-95.31
		c-0.78-1.02-1.57-2.03-2.36-3.02l162.33-44.03l-12.6-34.51c20.63-9.66,43-19.45,50.23-21.57c6.55,4.99,27.26,24.2,45.75,42.03
		L973.78,468.76z"/>
	<path class="st2" d="M1172.8,606.96c-15.07,54.03-40.13,143.89-46.93,167.96l-1.25,0.78c-10.5-0.57-33.45-2.68-55.88-4.99l0.85-23
		l-153.67,7.12l-3.56-221.46L993,473.85l-31.39-70.93c25.6-17.9,79.22-17.63,79.79-17.63l7.54,0.08l0.98-26.46l104.5-49.11
		l14.59,60.42l-13.4,12.23l2.66,5.26c8.33,16.46,12.85,57.96,14.34,78.15l-64.27,29.2l-22.12,6.74l-11.73-31.89l-6.93,1.99
		c-1.36,0.4-33.75,9.96-53.34,35.28l-7.07,9.14l11.15,3.08c8,2.2,16.47,5.56,19.08,7.5l7.5,3.13l7.73-15.74l19.61-5.64l4.51,12.25
		l26.22-8l-2.58,70.11l-19.68,8.38l-32.78-8.48l-6.43-17.02l-7.59,3.58c-26.46,12.49-46.79,7.77-55.48,5.74
		c-2.37-0.55-3.92-0.9-5.47-0.96c-2.85-0.11-5.53,1.36-7.13,3.71c-2.51,3.66-3.63,6.33,11.97,45.68
		c7.13,17.96,14.68,35.66,14.75,35.85l2.14,5l98.28-5.61l-10.25-51.49l52.32-22.27L1172.8,606.96z"/>
	<polygon class="st3" points="1346.42,465.06 1346.35,464.87 1346.51,464.79 	"/>
	<path class="st4" d="M1224.05,674.86l38.06,3.11l-3.47,67.15l-105.31-10.75c10.02-35.79,23.68-84.77,36.01-129.02l1.61-5.79
		l-23.94-13.84l3.76-102.01l17.95-8.16l-0.3-5.3c-0.14-2.46-3.38-56.75-13.92-84.06l11.72-10.69l-4.1-17l121.85-41.19l1.11-30.01
		l69.59-5.98c4.93,14.93,17.28,58.53,10.2,102.11l-63.51,42.06l-3.83-68.74L1222,445.97l64.72,33.74l-9.63-41.84l28.78-11.95
		l1.52,27.4l15.28-10.12l21.59,64.01l-42.12,19.9l-8.89-20.45l-72.31,42.71l1.13,5.42c0.14,0.77,15.61,76.32,4.85,110.81
		L1224.05,674.86z"/>
	<path class="st0" d="M1398.08,309.94l37.51-5.13c2.15-0.29,4.27,0.31,5.94,1.69c1.69,1.41,2.68,3.39,2.79,5.58
		c0.67,13.1,0.86,31.72-1.89,46.08c-3.61,18.76-16.61,21.38-18.81,21.69l-22.63,0.3C1404.32,354.45,1401.81,329.54,1398.08,309.94z"
		/>
	<path class="st0" d="M1450.28,679.91l3.49,40.94l-96.22,28.42l-83.44-3.08l3.87-75.08l0-0.08l0.87-11.09l31.42,4.96l32.69-139.94
		l20.4-9.64l-8.71-25.81l0-0.02l20.9-63.2c27.59-13.7,47.75-5.87,53.73-2.87c28.28,66.86,11.8,204.15,7.1,238.3l-20.96-3.69
		l-2.69,15.27l21.33,3.75l12.07,2.12L1450.28,679.91z"/>
	<path class="st1" d="M1640.85,593.63l17.27,39.91l-107.7,78.99l-27.9-50.58l32.63-30.13c2.68-2.46,3.28-6.46,1.44-9.6
		c-0.16-0.27-3.3-5.69-8.32-14.97c-5-9.26-11.88-22.39-19.51-38.07c-2.5-5.12-5.06-10.52-7.67-16.14
		c-3.5,4.96-6.99,9.84-10.44,14.63c-22.07,30.68-42.49,57.72-56.24,75.63c3.51-29.86,7.88-78.71,6.3-126.63
		c5.58-10.02,11.13-19.62,16.64-28.77c3.57-5.95,7.1-11.71,10.63-17.29c-2.15-6.49-4.17-13-6.03-19.5
		c-6.62-22.94-11.3-45.74-12.54-66.65l-0.6-10.23l-19.91,6.94c3.92-5.01,7.14-11.59,8.78-20.11c2.25-11.71,2.73-25.63,2.56-37.76
		l66.84-33.53l10.94,38.3l-34.1,24.06l4.78,6.57c5.97,8.18,13.42,18.94,21.6,31.43c2.91,4.47,5.91,9.17,8.98,14.04
		c3.44-4.59,6.78-8.93,9.99-13.03c26.88-34.41,36.51-47.67,36.84-47.99l5.96-5.63l-33.69-31.97l26.24-33.78l102.16,63.58
		l-27.57,43.49l-29.62-20.76l-2.56,11.26c-5.17,22.81-23.29,57.3-46.42,94.75c-3.15,5.1-6.4,10.25-9.71,15.43
		c2.73,5.51,5.35,11.02,7.85,16.53c18.68,41.13,30.07,80.95,20.63,104.94l-7.94,20.14L1640.85,593.63z"/>
</g>
<g id="BRILHO" class="st5">
	<g>
		<path class="st6" d="M255.62,353.77c13.37,8.95,30.46,7.68,45.45,12.15c8.09,2.41,15.8,5.75,23.7,8.69
			c4.37,1.62,8.77,3.19,13.25,4.5c3.81,1.11,9.52,1.15,12.74,3.4c-0.89-1.25-1.78-2.5-2.67-3.76c0.85,3.81-4.16,13.31-5.42,17.26
			c-2.09,6.54-3.67,13.13-5.1,19.85c5.28-1.19,10.57-2.38,15.85-3.57c-0.86-0.74-1.59-1.59-2.19-2.55
			c-2.37-4.38-7.69-3.8-10.49-0.39c-2.33,2.85-3.07,5.4-3.6,8.99c-1.53,10.39,16.23,13.55,18.35,3.18
			c1.44-7.04,2.8-14.05,3.55-21.21c0.69-6.56,2.57-14.28,1.82-20.85c-1.29-11.39-16.09-10.53-24.69-13.1
			c-12.51-3.73-24.67-8.76-37.45-11.56c-12.84-2.81-26.83-1.84-38.83-7.78C255.38,344.78,251.25,350.85,255.62,353.77L255.62,353.77
			z"/>
	</g>
	<g>
		<path class="st6" d="M477.93,446.19c-8.44-17.54-3.06-41.96-22.97-52.85c-11.57-6.32-27.13-6.92-39.86-9.39
			c-6.76-1.31-13.6-2.36-20.41-3.37c-8.48-1.26-14.33-0.22-22.53,1.73c-4.38,1.04-5.88,7.61-1.68,9.95
			c6.07,3.37,10.53,6.34,17.5,7.43c6.93,1.09,13.94,1.75,20.92,2.49c12.39,1.3,24.91,1.72,37.27,3.38
			c5.71,0.77,10.32,2.29,13.1,7.74c2.01,3.93,2.86,8.54,3.75,12.85c1.8,8.66,2.95,17.45,8.3,24.76
			C474.17,454.81,479.86,450.19,477.93,446.19L477.93,446.19z"/>
	</g>
	<g>
		<path class="st6" d="M481.24,425.83c22.05-13.6,46.74-22.53,72.59-25.18c13.41-1.38,27.02-0.88,40.13,2.36
			c12.88,3.19,23.58,11.63,35.04,17.98c10.13,5.61,20.55,10.68,29.38,18.28c4.62,3.98,8.08,7.9,10.69,13.48
			c2.26,4.83,3.9,9.94,6.97,14.36c3.48,5.01,9.75,6.88,13.04,11.69c3.04,4.45,2.65,11.19,3.56,16.3
			c2.2,12.33,9.67,22.47,17.05,32.24c3.81,5.05,11.02-1.69,7.21-6.69c-7.25-9.52-13.61-18.87-15.3-30.98
			c-1.14-8.17-2.27-15.93-9.23-21.22c-5.09-3.86-8.48-6.27-11.05-12.24c-1.91-4.44-3.38-9-5.67-13.27
			c-4.44-8.27-10.13-15.04-17.44-20.92c-7.48-6.02-15.7-10.89-23.99-15.68c-9.08-5.25-17.87-11.61-27.75-15.28
			c-10.55-3.92-22.4-4.09-33.53-4.15c-10.35-0.05-20.73,0.59-30.92,2.4c-24.1,4.3-46.6,14.29-65.89,29.37
			C472.18,421.76,476.96,428.47,481.24,425.83L481.24,425.83z"/>
	</g>
	<g>
		<path class="st6" d="M830.52,364.61c10.31,2.06,20.26,0.46,30.04-3.24c5.44-2.06,10.78-4.45,15.99-7.04
			c0.89-0.44,7.07-3.75,6.03-3.75c1.71,0,5.36,4.08,6.89,5.09c5.49,3.62,11.02,6.57,16.17,10.79c4.63,3.79,9.18,7.62,14.14,10.98
			c9.44,6.39,20.14,11.5,31.75,11.35c4.51-0.06,6.34-7.21,1.43-8.28c-12.75-2.79-23.72-8.18-33.71-16.59
			c-4.77-4.01-9.64-8.39-13.46-13.35c-3.92-5.09-7.09-9.78-12.42-13.6c-10.36-7.42-19.72-0.67-28.86,5.47
			c-9.93,6.67-19.9,13.57-32.37,12.86C826.91,354.99,825.14,363.54,830.52,364.61L830.52,364.61z"/>
	</g>
	<g>
		<path class="st6" d="M1039.96,364.59c7.9,3.69,14.75,2.47,22.58-1.01c10.02-4.45,19.59-9.9,29.51-14.57
			c10.11-4.76,20.67-8.28,30.71-13.18c9.31-4.55,20.76-9.04,28.28-16.26c-3.74,0.34-7.48,0.69-11.22,1.03
			c8.44,5.43,10.41,22.37,13.16,31.19c2.06,6.6,4.03,13.24,6.19,19.81c2.01,6.11,3.62,11.01,10.25,13.09
			c3.28,1.03,6.33-0.44,8.3-3.02c4.86-6.39,1.33-13.51-0.85-20.32c-2.41-7.54-4.73-15.1-7.29-22.59
			c-4.26-12.48-9.9-21.97-18.06-32.21c-1.98-2.49-5.88-3.45-8.88-2.7c-8.41,2.1-16.29,7.62-23.76,11.95
			c-8.23,4.78-15.92,10.12-23.78,15.45c-7.66,5.19-15.86,9.57-23.98,13.99c-7.41,4.03-18.45,12.73-27.35,11.19
			C1039.29,355.62,1034.79,362.17,1039.96,364.59L1039.96,364.59z"/>
	</g>
	<g>
		<path class="st6" d="M1298.28,294.44c16.42,2.08,33.52,3.72,50.1,2.64c3.82-0.25,7.66-0.79,11.44-1.38
			c1.83-0.28,4.11-0.37,5.85-1.01c3.56-0.05,3.86-0.58,0.9-1.6c-2.05-1.58-2.53-1.55-1.46,0.1c-0.17,2.4,2.33,7.01,2.82,9.62
			c0.72,3.79,1.13,7.62,1.59,11.44c1.72,14.52,7.18,27.44,10.32,41.58c1.56,7.01,1.46,13.94-0.98,20.74
			c-1.28,3.57-3.33,6.44-5.21,9.71c-2.05,3.57-1.88,5.84-1.69,9.79c0.15,3.14,2.31,6.24,5.78,6.22c9.69-0.04,13.8-5.53,17.79-13.91
			c3.77-7.93,5.77-16.7,5.4-25.5c-0.39-9.26-3.18-17.95-6.05-26.68c-2.89-8.78-4.76-17.39-5.85-26.57
			c-1.01-8.46-2.16-16.92-5.78-24.74c-4.23-9.13-11.12-11.49-20.71-9.86c-21.38,3.64-42.23,8.89-63.94,10.55
			C1292.95,286.01,1292.54,293.71,1298.28,294.44L1298.28,294.44z"/>
	</g>
	<g>
		<path class="st6" d="M1398.97,315.2c14.68-0.69,27.83-0.71,41.61-6.48c-3.71-0.62-7.42-1.24-11.12-1.85
			c4.52,4.07,4.75,12.41,5.33,18.1c0.71,6.94,1.39,14.08,0.82,21.05c-0.51,6.25-2.54,11.23-6.21,16.26
			c-0.76,1.04-5.57,7.85-1.09,2.41c-1.34,1.63-2.51,2.14-3.37,4.28c-1.32,3.31,0.62,6.73,3.17,8.69c6.31,4.85,14.12-1.07,18.01-6.11
			c5.19-6.71,7.49-15.06,8.25-23.41c0.81-9.01-0.47-18.43-1.73-27.34c-1.29-9.13-4.72-16.24-8.28-24.57
			c-2.09-4.88-8.24-5.55-12.5-3.77c-11.09,4.64-21.96,10.9-33.82,13.24C1392.81,306.72,1393.47,315.46,1398.97,315.2L1398.97,315.2z
			"/>
	</g>
	<g>
		<path class="st6" d="M1575.72,277.94c14.62,14.34,32.18,25.36,49.38,36.25c8.61,5.46,17.25,10.87,25.87,16.3
			c4.31,2.72,8.62,5.43,12.94,8.15c2.16,1.36,4.31,2.72,6.47,4.07c0.86,0.54,1.73,1.09,2.59,1.63c2.99,2,3.42,2.21,1.31,0.64
			c-0.24-2.59-0.48-5.17-0.73-7.76c-0.81,2.53-6.35,6.61-8.42,8.88c-3.65,4.01-7.31,8.01-10.97,12.01c-3.33,3.64-6.68,7.26-10,10.89
			c-1.56,1.71-3.27,3.37-4.62,5.25c-0.39,0.55-3.82,5.57-2.53,3.97c-3.42,4.25-0.27,11.47,4.66,12.78
			c8.18,2.16,13.11-3.99,18.15-9.47c6.01-6.53,12-13.08,17.98-19.64c4.76-5.23,13.11-11.5,14.89-18.63
			c2.36-9.42-6.15-14.09-12.84-18.3c-15.96-10.05-31.88-20.15-47.88-30.13c-15.99-9.97-32.37-20.02-50.17-26.48
			C1576.33,266.39,1571.57,273.88,1575.72,277.94L1575.72,277.94z"/>
	</g>
	<g>
		<path class="st6" d="M1458.77,319.68c-0.23,0.8-0.46,1.6-0.7,2.4c-0.29,0.99-0.21,2.1,0.28,3.02c0.44,0.83,1.34,1.63,2.26,1.88
			c2,0.53,4.29-0.45,4.89-2.55c0.23-0.8,0.46-1.6,0.7-2.4c0.29-0.99,0.21-2.1-0.28-3.02c-0.44-0.83-1.34-1.63-2.26-1.88
			C1461.66,316.6,1459.38,317.58,1458.77,319.68L1458.77,319.68z"/>
	</g>
	<g>
		<path class="st6" d="M1464.02,329.05c3.33-5.16,13.81-7.57,19.2-9.8c7.07-2.92,14.44-4.98,21.56-7.77
			c7.06-2.77,13.9-6.09,20.76-9.34c6.77-3.21,13.48-5.76,19.55-10.24c8.31-6.14-1.55-17.86-10-14c-7.29,3.33-13.58,8.78-20.44,12.92
			c-7.3,4.4-14.79,8.48-21.96,13.09c-6.85,4.41-13.81,7.98-21.32,11.17c-5.53,2.35-11.16,4.1-14.45,9.44
			C1454.05,329.15,1461.08,333.61,1464.02,329.05L1464.02,329.05z"/>
	</g>
	<g>
		<path class="st6" d="M1124.8,340.59c-1.77,2.36-2.37,5.3-1.68,8.18c0.05-1.45,0.11-2.89,0.16-4.34c-0.43,0.98-0.67,2.23-0.57,3.29
			c0.11-0.63,0.22-1.26,0.33-1.9c-0.93,2.5-0.86,5.03,0.26,7.45c1.32,2.87,5.29,3.83,7.94,2.4c0.14-0.08,0.28-0.15,0.42-0.23
			c0.44-0.31,0.87-0.62,1.31-0.94c-1.11,0.79-1.18,0.84-0.19,0.14c0.36-0.25,0.72-0.5,1.06-0.77c0.58-0.46-1.58,1.04-0.56,0.43
			c-1.22,0.28-2.43,0.56-3.65,0.84c1.12,0.01,2.23-0.14,3.33-0.32c-2.09-0.35-4.17-0.7-6.26-1.05c1.63,1.25,3.49,1.45,5.43,1.73
			c-0.83-0.14-1.66-0.29-2.49-0.43c0.17,0.03,0.33,0.06,0.5,0.11c3.39,0.82,6.98,0.28,9.61-2.17c2.9-2.69,3.8-6.97,2.42-10.62
			c-1.24-3.26-3.99-5.53-7.43-6.12c-1.78-0.31-3.4-0.16-5.1,0.48C1127.54,337.55,1126.15,338.79,1124.8,340.59L1124.8,340.59z"/>
	</g>
	<g>
		<path class="st6" d="M1130.04,364.11c0.87,0.07,1.69-0.09,2.46-0.46c0.8-0.23,1.49-0.64,2.09-1.24c0.64-0.55,1.1-1.22,1.39-1.99
			c0.42-0.74,0.64-1.55,0.64-2.42c-0.05-0.56-0.11-1.13-0.16-1.69c-0.26-1.09-0.77-2.04-1.53-2.86c-0.42-0.35-0.83-0.69-1.25-1.04
			c-0.97-0.61-2.02-0.94-3.17-0.98c-0.87-0.07-1.69,0.09-2.46,0.46c-0.8,0.23-1.49,0.64-2.09,1.24c-0.64,0.55-1.1,1.22-1.39,1.99
			c-0.42,0.74-0.64,1.55-0.64,2.42c0.05,0.56,0.11,1.13,0.16,1.69c0.26,1.09,0.77,2.04,1.53,2.86c0.42,0.35,0.83,0.69,1.25,1.04
			C1127.84,363.73,1128.9,364.06,1130.04,364.11L1130.04,364.11z"/>
	</g>
	<g>
		<path class="st6" d="M1136.22,360.87c0.01,0.07,0.01,0.13,0.02,0.2c-0.05-0.55-0.11-1.11-0.16-1.66c0.02,0.34,0,0.67-0.05,1.01
			c0.09-0.53,0.18-1.06,0.27-1.59c-0.16,0.78-0.22,1.56-0.35,2.34c0.29-0.95,0.59-1.9,0.88-2.85c-0.28,0.59-0.67,1.17-1.06,1.68
			c0.28-0.34,0.57-0.68,0.85-1.02c-0.08,0.1-0.17,0.2-0.27,0.3c-1.41,1.51-2,3.46-1.24,5.46c0.66,1.74,2.5,3.35,4.49,3.26
			c1.34-0.06,2.63-0.21,3.84-0.84c0.91-0.47,1.48-1.16,2.26-1.73c-0.4,0.29-0.8,0.57-1.2,0.86c1.1-0.7,2.04-1.47,2.73-2.6
			c0.45-0.74,0.82-1.55,1.09-2.37c1.28-3.89-1.73-8.01-5.75-8.16c-1.61-0.06-3.32,0.58-4.5,1.67c-0.81,0.75-1.38,1.66-1.71,2.71
			C1136,358.63,1135.96,359.75,1136.22,360.87L1136.22,360.87z"/>
	</g>
	<g>
		<path class="st6" d="M863.32,396.65c0.35,1.16,0.81,2.28,1.28,3.39c-0.29-0.78-0.59-1.55-0.88-2.33c0.53,1.53,0.81,3.04,1.58,4.52
			c1.93,3.71,6.81,6.1,10.93,4.93c4.23-1.2,7.33-4.74,7.57-9.21c0.17-3.16-1.18-6.36-3.32-8.67c-0.74-0.8-1.68-1.61-2.61-2.18
			c-1.74-1.08-3.35-1.34-5.34-1.66c-2.74-0.44-5.64,1.34-7.29,3.33C863.48,390.88,862.49,393.9,863.32,396.65L863.32,396.65z"/>
	</g>
	<g>
		<path class="st6" d="M895.85,394.2c0.35-2.16,0.26-1.71-0.25,1.34c-0.06,1.79,0.33,3.47,1.17,5.04c0.07,0.16,0.14,0.32,0.21,0.47
			c-0.85-1.85-0.76-1.52,0.26,0.99c-0.33-2.65-0.55-3.39-0.68-2.21c-0.04,0.31-0.09,0.63-0.13,0.94c-0.09,1.18,0.08,2.38,0.23,3.55
			c0.56,4.37,5.87,5.71,9.25,4.17c1.02-0.47,2.12-1.23,2.94-2.03c0.59-0.57,1.16-1.3,1.64-1.97c1.48-2.03-3.42,2.66-0.4,0.5
			c0.68-0.37,1.22-0.87,1.64-1.52c0.81-1.03,0.95-1.17,0.41-0.4c-0.4,0.51-0.44,0.6-0.11,0.28c0.4-0.33,0.74-0.72,1.02-1.16
			c1.83-2.19,2.16-4.51,2.56-7.25c0.74-5.14-4.56-10.28-9.51-10.24c-2.56,0.02-5.24,0.76-7.09,2.64
			C897.03,389.31,896.32,391.45,895.85,394.2L895.85,394.2z"/>
	</g>
	<g>
		<path class="st6" d="M899.12,402.95c-1.01,1.63-1.91,3.54-2.47,5.21c-0.72,2.15-0.17,4.38,0.46,6.48
			c0.61,2.02,2.39,3.47,4.56,3.22c1.95-0.22,3.95-1.9,3.85-4.05c-0.07-1.36,0.35-2.57,0.32-4.06c-0.03-1.33,0.01-1.89,0.64-3.37
			c0.78-1.85-0.49-4.15-2.19-4.91C902.46,400.65,900.21,401.18,899.12,402.95L899.12,402.95z"/>
	</g>
	<g>
		<path class="st6" d="M871.97,415.9c0.96,0.07,1.85-0.1,2.7-0.5c0.87-0.25,1.63-0.7,2.29-1.35c0.7-0.6,1.21-1.33,1.52-2.18
			c0.47-0.81,0.7-1.7,0.7-2.65c-0.06-0.62-0.12-1.24-0.18-1.86c-0.29-1.19-0.84-2.23-1.67-3.13c-0.46-0.38-0.91-0.76-1.37-1.14
			c-1.06-0.67-2.22-1.03-3.47-1.08c-0.96-0.07-1.85,0.1-2.7,0.5c-0.87,0.25-1.63,0.7-2.29,1.35c-0.7,0.6-1.21,1.33-1.52,2.18
			c-0.47,0.81-0.7,1.7-0.7,2.65c0.06,0.62,0.12,1.24,0.18,1.86c0.29,1.19,0.84,2.23,1.67,3.13c0.46,0.38,0.91,0.76,1.37,1.14
			C869.56,415.49,870.72,415.85,871.97,415.9L871.97,415.9z"/>
	</g>
	<g>
		<path class="st6" d="M928.92,439.78c-0.11,0.05-0.23,0.09-0.34,0.14c1.66-0.38,3.32-0.77,4.98-1.15c-0.04,0-0.09,0-0.13,0.01
			c-0.88,0.09-1.76,0.17-2.64,0.26c-0.8,0.3-1.6,0.61-2.4,0.91c-1.18,0.58-2.13,1.39-2.87,2.45c-0.64,0.59-1.09,1.31-1.35,2.14
			c-0.48,0.75-0.73,1.58-0.77,2.47c-0.27,0.87-0.3,1.74-0.1,2.63c-0.03,0.89,0.16,1.73,0.58,2.52c0.35,1.24,1,2.33,1.93,3.26
			c0.65,0.54,1.3,1.08,1.94,1.62c0.78,0.36,1.55,0.72,2.33,1.08c0.87,0.15,1.74,0.3,2.62,0.45c0.88-0.09,1.76-0.17,2.64-0.26
			c0.8-0.3,1.6-0.61,2.4-0.91c1.18-0.58,2.13-1.39,2.87-2.45c0.64-0.59,1.09-1.31,1.35-2.14c0.66-1.16,0.99-2.42,0.99-3.78
			c0-0.05,0.01-0.09,0.01-0.14c-0.15,0.86-0.3,1.72-0.44,2.58c0.04-0.1,0.09-0.21,0.13-0.31c0.15-0.85,0.29-1.7,0.44-2.54
			c-0.08-0.86-0.17-1.71-0.25-2.57c-0.29-0.78-0.59-1.56-0.88-2.33c-0.56-1.14-1.36-2.07-2.38-2.79c-0.58-0.62-1.27-1.06-2.08-1.31
			c-0.73-0.46-1.53-0.71-2.4-0.75c-0.84-0.26-1.7-0.29-2.56-0.09C931.25,438.79,930.05,439.12,928.92,439.78L928.92,439.78z"/>
	</g>
	<g>
		<path class="st6" d="M918.94,479.77c0.07-0.01,0.14-0.02,0.21-0.02c-0.85,0.08-1.7,0.16-2.55,0.25c0.21-0.01,0.41,0,0.62,0.02
			c-0.85-0.15-1.7-0.29-2.55-0.44c0.43,0.08,0.8,0.24,1.2,0.4c-0.77-0.36-1.54-0.72-2.31-1.08c1.09,0.53,2.08,1.13,3.24,1.59
			c-0.77-0.36-1.54-0.72-2.31-1.08c0.06,0.03,0.13,0.06,0.19,0.09c0.77,0.36,1.53,0.71,2.3,1.07c1.28,0.46,2.58,0.56,3.89,0.32
			c2.06-0.2,4.21-0.96,5.71-2.48c1.19-1.21,2.09-2.63,2.67-4.22c0.77-2.1,0.57-5.67-0.71-7.57c-1.13-1.69-2.2-3.03-3.92-4.16
			c-1.59-1.04-3.74-1.65-5.63-1.77c-2.34-0.15-4.65,0.4-6.73,1.47c-4.21,2.17-5.96,7.39-4.32,11.71c0.7,1.85,1.95,3.66,3.72,4.68
			c0.74,0.35,1.49,0.69,2.23,1.04C915.56,480.09,917.24,480.16,918.94,479.77L918.94,479.77z"/>
	</g>
	<g>
		<path class="st6" d="M636.49,465.7c0.11-0.01,0.22-0.02,0.33-0.02c-1.54-0.48-3.09-0.96-4.63-1.44c1.37,1.06,3.5,1.66,5.17,1.73
			c1,0.04,2.02-0.16,3.02-0.29c-0.88,0.09-1.75,0.17-2.63,0.26c0.2-0.01,0.38,0,0.58,0.03c-0.87-0.15-1.74-0.3-2.61-0.45
			c0.13,0.03,0.25,0.06,0.37,0.12c-0.77-0.36-1.55-0.72-2.32-1.08c0.18,0.1,0.33,0.2,0.5,0.33c-0.65-0.54-1.3-1.08-1.94-1.62
			c1.29,1.54,3.06,2.49,4.93,3.17c-1.66-2.36-3.33-4.72-4.99-7.08c-0.04,0.45-0.03,0.91-0.06,1.37c-0.09,1.48,0.57,3.36,1.64,4.41
			c1.21,1.19,2.59,1.78,4.28,1.96c2.27,0.24,4.45-0.84,6.15-2.24c-1.07,0.57-2.15,1.15-3.22,1.72c0.3-0.04,0.6-0.08,0.91-0.12
			c0.79-0.3,1.57-0.6,2.36-0.89c1.15-0.57,2.09-1.37,2.82-2.4c1.45-1.74,2.05-3.54,2.3-5.81c0.11-0.98-0.04-2.15-0.22-3.1
			c-0.32-1.71-1.36-3.35-2.54-4.59c-1.74-1.82-3.89-2.78-6.3-3.19c-2.04-0.35-3.97-0.2-5.91,0.54c-1.7,0.65-3.02,1.52-4.21,2.96
			c-1.55,1.86-2.09,3.71-2.35,6.12c0.48-1.54,0.96-3.09,1.44-4.63c-0.42,0.8-0.8,1.64-1.15,2.47c-1.11,2.58-0.21,5.8,1.33,7.96
			c0.6,1.01,1.42,1.82,2.46,2.43C633.34,465.16,634.85,465.63,636.49,465.7L636.49,465.7z"/>
	</g>
	<g>
		<path class="st6" d="M602.62,454c-0.21-0.54-0.42-1.08-0.62-1.63c0.17,0.53,0.36,1.05,0.58,1.57c0.81,2.13,2.04,3.34,3.8,4.79
			c-0.26-0.21-1.78-1.63-0.82-0.59c1.29,1.4,2.96,2.17,4.72,2.76c-1.19-0.75-2.38-1.51-3.57-2.26c1.48,1.44,2.75,2.21,4.6,3.02
			c-1.05-0.67-2.11-1.33-3.16-2c1.12,1.26,2.21,2.44,3.67,3.36c1.8,1.13,4.11,1.23,5.99,0.22c2.02-1.09,2.77-2.87,3.13-5.01
			c0.29-1.75-0.09-3.49-0.29-5.24c-0.05,1.3-0.1,2.59-0.14,3.89c0.29-0.79,0.46-1.62,0.5-2.48c0.08-0.81,0.09-0.72,0.02,0.25
			c0.37-0.98,0.5-1.97,0.37-2.97c-0.02-0.99-0.13-1.98-0.33-2.94c0.08,0.84,0.16,1.69,0.25,2.53c0.02-3.61-1.46-7.17-4.68-9.07
			c-2.46-1.45-5.33-2.03-8.13-1.24C603.25,442.45,599.38,448.85,602.62,454L602.62,454z"/>
	</g>
	<g>
		<path class="st6" d="M616.27,473.07c-1.26,1.74-1.65,3.86-1.76,5.95c-0.12,2.19,0.66,4.33,1.9,6.07c1.3,1.81,2.9,2.94,5.01,3.74
			c0.09,0.03,0.19,0.07,0.28,0.11c-1.71-1.42-3.42-2.84-5.13-4.26c0.87,1.4,1.78,2.81,3.26,3.67c1.3,0.75,2.68,1.25,4.2,1.3
			c1.46,0.05,2.99-0.3,4.28-0.99c1.53-0.82,2.53-2.05,3.52-3.42c-1.81,1.29-3.62,2.58-5.43,3.87c0.09-0.03,0.19-0.06,0.28-0.09
			c2.11-0.62,3.85-1.65,5.27-3.36c1.38-1.65,2.31-3.71,2.35-5.92c0.04-2.06-0.22-4.27-1.32-6.06c-1.82-2.96-4.61-4.97-8.18-5.1
			C621.23,468.46,618.3,470.26,616.27,473.07L616.27,473.07z"/>
	</g>
	<g>
		<path class="st6" d="M418.98,428.59c0.18-0.2,0.36-0.4,0.54-0.6c-1.95,0.44-3.91,0.88-5.86,1.32c1.26,0.24,2.49,0.58,3.78,0.71
			c3.65,0.37,6.82-4.36,4.69-7.52c-0.43-0.64-0.85-1.37-1.35-1.94c-0.31-0.35-0.66-0.65-0.95-1.02c0.44,1.95,0.88,3.91,1.32,5.86
			c0.62-1.67,0.82-3.57,0.41-5.31c-0.49-2.06-1.99-4.34-3.85-5.41c-3.84-2.21-8.56-1.62-11.45,1.85c-1.28,1.54-1.93,3.28-2.09,5.27
			c-0.17,2.1,0.85,4.84,2.35,6.33c1.62,1.6,3.78,2.83,6.14,2.81C414.88,430.92,417.42,430.3,418.98,428.59L418.98,428.59z"/>
	</g>
	<g>
		<path class="st6" d="M440.93,417.61c-0.69-0.05-1.37-0.02-2.05,0.16c-2.1,0.55-3.81,2.06-4.47,4.16c-0.66,2.1-0.13,4.45,1.37,6.07
			c1.5,1.61,3.8,2.32,5.95,1.81c2.14-0.51,3.77-2.1,4.47-4.16c0.23-0.67,0.3-1.35,0.31-2.04c0.06-0.8-0.08-1.54-0.42-2.25
			c-0.21-0.73-0.58-1.36-1.13-1.91c-0.38-0.32-0.76-0.63-1.14-0.95C442.94,417.95,441.98,417.65,440.93,417.61L440.93,417.61z"/>
	</g>
	<g>
		<path class="st6" d="M406.07,444.07c0.25,0.74,0.52,1.46,0.81,2.19c0.37,0.68,0.88,1.24,1.54,1.66c0.68,0.43,1.42,0.66,2.23,0.69
			c0.8,0.03,1.56-0.15,2.27-0.53c0.68-0.37,1.24-0.88,1.66-1.54c0.34-0.7,0.67-1.4,0.97-2.12c0.27-0.86,0.3-1.73,0.1-2.61
			c-0.2-0.84-0.6-1.58-1.18-2.21c-0.93-0.92-2.09-1.52-3.42-1.57c-0.68-0.05-1.31,0.07-1.91,0.35c-0.62,0.18-1.16,0.49-1.62,0.96
			c-0.63,0.59-1.08,1.3-1.34,2.12C405.9,442.32,405.87,443.19,406.07,444.07L406.07,444.07z"/>
	</g>
	<g>
		<path class="st6" d="M1322.1,330.74c0.11,0.12,0.21,0.24,0.32,0.37c-0.75-1.41-1.51-2.82-2.26-4.22c0.05,0.22,0.11,0.44,0.16,0.66
			c0.72,2.96,3.11,5.9,6.18,6.65c0.07,0.02,0.14,0.03,0.21,0.05c-1.65-1.36-3.29-2.73-4.94-4.09c0.48,1.03,1.22,1.79,1.73,2.81
			c0.56,1.13-0.13-0.68,0.08,0.29c0.36,1.63,2.35,3.14,3.54,4.12c3.01,2.49,7.83,0.08,8.84-3.22c0.35-1.14,0.74-2.7,0.65-3.92
			c0.06-0.67-0.03-0.46-0.26,0.62c-0.42,1.27-0.37,1.28,0.16,0.02c0.34-0.73,0.59-1.43,0.88-2.18c-2.05,1.91-4.1,3.81-6.16,5.72
			c3.54-0.85,5.96-3.46,7.01-6.86c-0.85,1.35-1.71,2.7-2.56,4.05c0.13-0.11,0.25-0.23,0.38-0.34c6.24-5.56,2.23-17.17-6.36-17.1
			c-3.45,0.03-6.81,1.61-8.7,4.57C1318.59,322.53,1319.22,327.43,1322.1,330.74L1322.1,330.74z"/>
	</g>
	<g>
		<path class="st6" d="M1350.82,356.05c0.07,0.1,0.14,0.19,0.21,0.29c-0.56-1.51-1.13-3.03-1.69-4.54
			c-0.08,0.75,0.07,1.49,0.15,2.24c0.18,0.46,0.35,0.93,0.53,1.39c0.34,0.68,0.81,1.24,1.42,1.66c0.92,0.77,2.19,1.4,3.43,1.36
			c0.76-0.02,1.53-0.07,2.26-0.26c-1.62-0.27-3.23-0.54-4.85-0.82c1.68,0.96,3.29,1.57,5.21,1.73c2.38,0.19,5.15-0.96,6.87-2.55
			c1.8-1.67,2.96-4.21,3.05-6.67c0.09-2.35-0.85-5.19-2.55-6.87c-1.76-1.74-4.11-3.07-6.67-3.05c-2.48,0.02-5.08,0.74-6.87,2.55
			c-0.52,0.63-1.05,1.26-1.57,1.88c-0.74,1.07-1.16,2.25-1.27,3.52c-0.33,1.26-0.32,2.54,0.03,3.82
			C1348.91,353.38,1349.67,354.82,1350.82,356.05L1350.82,356.05z"/>
	</g>
	<g>
		<path class="st6" d="M1334.38,386.57c0.88,0.07,1.71-0.09,2.49-0.46c0.81-0.23,1.51-0.65,2.11-1.25c0.65-0.56,1.12-1.23,1.4-2.02
			c0.43-0.75,0.64-1.57,0.64-2.45c-0.06-0.57-0.11-1.14-0.17-1.71c-0.26-1.1-0.78-2.06-1.55-2.89c-0.42-0.35-0.84-0.7-1.26-1.05
			c-0.98-0.62-2.05-0.95-3.21-1c-0.88-0.07-1.71,0.09-2.49,0.46c-0.81,0.23-1.51,0.65-2.11,1.25c-0.65,0.56-1.12,1.23-1.4,2.02
			c-0.43,0.75-0.64,1.57-0.64,2.45c0.06,0.57,0.11,1.14,0.17,1.71c0.26,1.1,0.78,2.06,1.55,2.89c0.42,0.35,0.84,0.7,1.26,1.05
			C1332.15,386.19,1333.22,386.52,1334.38,386.57L1334.38,386.57z"/>
	</g>
	<g>
		<path class="st6" d="M1418.43,329.85c0.09,0.07,0.18,0.13,0.26,0.2c-0.36-0.3-0.71-0.59-1.07-0.89c0.1,0.09,0.2,0.18,0.3,0.26
			c0.44,0.51,0.96,0.87,1.57,1.1c0.59,0.34,1.22,0.5,1.91,0.5c0.45-0.04,0.89-0.09,1.34-0.13c0.86-0.21,1.61-0.61,2.26-1.21
			c0.11-0.08,0.21-0.16,0.32-0.24c-0.38,0.27-0.76,0.54-1.13,0.81c0.09-0.06,0.18-0.12,0.28-0.18c0.71-0.35,1.29-0.84,1.73-1.48
			c0.38-0.36,0.66-0.79,0.82-1.29c0.4-0.7,0.6-1.46,0.6-2.28c-0.05-0.53-0.1-1.06-0.15-1.6c-0.18-0.48-0.37-0.97-0.55-1.45
			c-0.35-0.71-0.84-1.29-1.48-1.73c-0.36-0.38-0.79-0.66-1.29-0.82c-0.7-0.4-1.46-0.6-2.28-0.6c-0.53,0.05-1.06,0.1-1.6,0.15
			c-0.48,0.18-0.97,0.37-1.45,0.55c-0.71,0.35-1.29,0.84-1.73,1.48c-0.38,0.36-0.66,0.79-0.82,1.29c-0.4,0.7-0.6,1.46-0.6,2.28
			c0.05,0.53,0.1,1.06,0.15,1.6c0.18,0.48,0.37,0.97,0.55,1.45C1416.86,328.55,1417.55,329.29,1418.43,329.85L1418.43,329.85z"/>
	</g>
	<g>
		<path class="st6" d="M1633.73,344.46c0.04,0.07,0.08,0.14,0.12,0.21c-0.14-1.47-0.27-2.93-0.41-4.4
			c-0.03,0.08-0.05,0.16-0.07,0.24c-0.57,1.9-0.14,3.98,1.23,5.44c1.36,1.47,3.4,2.05,5.34,1.62c0.08-0.02,0.16-0.04,0.24-0.06
			c-1.45-0.24-2.9-0.49-4.36-0.73c0.3,0.22,0.62,0.38,0.98,0.5c0.77,0.44,1.61,0.66,2.53,0.66c0.91,0.07,1.76-0.09,2.57-0.48
			c0.83-0.24,1.55-0.67,2.18-1.29c0.36-0.43,0.72-0.87,1.08-1.3c0.51-0.74,0.8-1.55,0.87-2.43c0.23-0.87,0.22-1.75-0.02-2.64
			c-0.17-0.87-0.54-1.63-1.1-2.29c-0.44-0.74-1.04-1.33-1.79-1.77c-0.52-0.24-1.04-0.48-1.55-0.72c-0.87-0.31-1.74-0.38-2.63-0.22
			c-0.88,0.01-1.71,0.24-2.49,0.69c-0.46,0.33-0.92,0.66-1.38,0.98c-0.85,0.79-1.45,1.75-1.81,2.85c-0.1,0.58-0.2,1.17-0.3,1.75
			C1632.91,342.28,1633.17,343.41,1633.73,344.46L1633.73,344.46z"/>
	</g>
	<g>
		<path class="st6" d="M1613.18,334.52c0.2,0.02,0.4,0.05,0.59,0.07c-1.85-1.15-3.7-2.3-5.54-3.46c0.6,1.19,1.31,2.41,2.3,3.32
			c1.5,1.37,3.3,2.12,5.36,1.63c2-0.47,3.29-1.9,4.03-3.75c0.51-1.27,0.62-2.7,0.65-4.06c-1.15,1.85-2.3,3.7-3.46,5.54
			c1.47-0.93,2.81-1.84,3.77-3.35c1.17-1.83,1.73-4.58,1.13-6.7c-1.2-4.22-4.9-7.04-9.36-6.61c-1.96,0.19-3.61,0.95-5.11,2.22
			c-1.59,1.36-2.8,4-2.79,6.08c0.02,2.26,0.67,4.63,2.33,6.27C1608.82,333.44,1610.77,334.24,1613.18,334.52L1613.18,334.52z"/>
	</g>
	<g>
		<path class="st6" d="M1598.49,363.93c-1.2-0.33-2.39-0.66-3.59-0.99c-2.29-0.63-5.24,0.95-5.12,3.61
			c0.21,4.94-0.28,9.45-1.67,14.2c2.25-0.51,4.5-1.01,6.75-1.52c-1.55-1.92-3.1-3.84-4.65-5.76c-2.73-3.38-7.45,0.03-6.87,3.67
			c-0.6,2.12-1.21,4.24-1.81,6.36c2.27,1.04,4.54,2.08,6.81,3.12c-0.45-4.98-4.44-8.56-9.71-6.96c-2.42,0.74-4.06,2.58-5.11,4.8
			c-0.74,1.56-0.97,3.33-1.17,5.03c-0.03,0.7-0.07,1.39-0.1,2.09c-1.1,2.18-0.6,3.65,1.51,4.39c-2.94-3.82-8.5,0.71-6.59,4.71
			c0.26,1.96,0.53,3.91,0.79,5.87c2.5-0.23,5.01-0.47,7.51-0.7c-1.54-2.34-3.08-4.68-4.62-7.02c-1.81-2.75-6.53-2.96-7.53,0.7
			c-2.47,9.1-4.96,18.19-7.47,27.28c2.35-0.53,4.71-1.06,7.06-1.59c-1.9-2.25-3.8-4.49-5.7-6.74c-2.31-2.73-7.42-0.91-7.34,2.73
			c0.09,4.23-0.22,8.08-1.2,12.22c2.37-0.53,4.73-1.06,7.1-1.6c-1.96-2.23-3.93-4.45-5.89-6.68c-2.52-2.85-6.94-0.78-7.25,2.69
			c-0.81,9.17-1.63,18.34-2.44,27.51c-0.47,5.29,7.74,5.56,8.23,0.3c0.86-9.17,1.72-18.34,2.58-27.51c-2.42,0.9-4.83,1.8-7.25,2.69
			c1.95,2.24,3.91,4.47,5.86,6.71c1.99,2.28,6.36,1.48,7.1-1.6c1.16-4.83,1.74-9.46,1.64-14.44c-2.45,0.91-4.89,1.82-7.34,2.73
			c1.92,2.22,3.85,4.45,5.77,6.67c2.01,2.32,6.26,1.42,7.06-1.59c2.41-9.12,4.85-18.23,7.31-27.33c-2.51,0.23-5.02,0.47-7.53,0.7
			c1.54,2.34,3.09,4.68,4.63,7.01c1.71,2.59,6.73,3.09,7.51-0.7c0.95-4.62,0.64-7.93-1.4-12.19c-2.2,1.57-4.39,3.14-6.59,4.71
			c2.17,2.8,6.07,2.84,8.78,0.68c4.43-3.53,4.15-10.91,3.69-15.89c0.28,3.04,4.19,6.08,6.81,3.12c3.79-4.28,5.08-8.51,4.14-14.15
			c-2.29,1.22-4.58,2.45-6.87,3.67c1.56,1.91,3.13,3.81,4.69,5.72c1.9,2.32,5.95,1.27,6.75-1.52c1.54-5.43,2.2-10.66,1.92-16.32
			c-1.71,1.2-3.41,2.41-5.12,3.61c1.2,0.32,2.4,0.64,3.6,0.96C1601,372.72,1603.37,365.28,1598.49,363.93L1598.49,363.93z"/>
	</g>
	<g>
		<path class="st6" d="M1519.59,326.67c0.05,0.01,0.1,0.02,0.14,0.04c-0.41-0.19-0.81-0.38-1.22-0.57c0.01,0.01,0.03,0.02,0.04,0.03
			c-0.59-0.63-1.18-1.27-1.77-1.9c0.09,0.13,0.19,0.27,0.28,0.4c0.4,0.73,0.95,1.32,1.65,1.77c0.73,0.46,1.52,0.71,2.38,0.74
			c0.86,0.03,1.67-0.16,2.43-0.56c0.73-0.4,1.32-0.95,1.77-1.65c0.1-0.13,0.21-0.25,0.31-0.38c-0.63,0.59-1.27,1.18-1.9,1.77
			c0.01-0.01,0.03-0.02,0.04-0.02c-0.42,0.16-0.84,0.32-1.26,0.48c0.56-0.1,0.85-0.18,1.54-0.55c0.88-0.48,1.59-1.14,2.13-1.98
			c0.44-0.64,0.7-1.35,0.76-2.11c0.2-0.76,0.19-1.52-0.02-2.29c-0.24-0.98-0.7-1.84-1.38-2.59c-0.69-0.74-1.52-1.26-2.48-1.57
			c-0.51-0.09-1.01-0.17-1.52-0.26c-1.92-0.16-4.09,0.99-5.06,2.66c-0.21,0.45-0.42,0.9-0.63,1.35c-0.31,1.01-0.35,2.02-0.11,3.05
			c0.24,0.98,0.7,1.84,1.38,2.59C1517.81,325.84,1518.63,326.36,1519.59,326.67L1519.59,326.67z"/>
	</g>
	<g>
		<path class="st6" d="M1495.52,332.7c0.23,0.18,0.46,0.36,0.69,0.54c0.11,0.09,0.22,0.17,0.33,0.26c0.05,0.04,0.1,0.08,0.15,0.11
			c0.2,0.09,0.39,0.19,0.59,0.28c0.19,0.1,0.38,0.19,0.58,0.27c0.75,0.23,1.5,0.26,2.27,0.08c0.73-0.18,1.37-0.52,1.92-1.03
			c0.55-0.51,0.94-1.13,1.16-1.84c0.23-0.75,0.26-1.5,0.08-2.27c-0.15-0.45-0.27-0.93-0.53-1.32c-0.09-0.13-0.17-0.26-0.26-0.38
			c-0.16-0.24-0.33-0.49-0.49-0.73c-0.38-0.7-0.91-1.27-1.58-1.7c-0.7-0.44-1.46-0.68-2.29-0.71c-1.22,0.01-2.38,0.38-3.28,1.22
			c-0.46,0.4-0.79,0.88-1,1.44c-0.31,0.53-0.46,1.12-0.46,1.75c-0.03,0.83,0.15,1.6,0.54,2.33
			C1494.32,331.7,1494.85,332.26,1495.52,332.7L1495.52,332.7z"/>
	</g>
	<g>
		<path class="st6" d="M1507.07,345.64c5.58,0.21,5.9-8.46,0.32-8.67C1501.81,336.77,1501.48,345.44,1507.07,345.64L1507.07,345.64z
			"/>
	</g>
	<g>
		<path class="st6" d="M1287.33,340.17c-5.54,0.88-9.91-3.66-15.65-1.29c-3.3,1.36-5.22,4.1-6.83,7.19
			c-0.6,1.15-2.26,6.83-3.32,6.92c1.34-0.11-0.61-1.84-1.15-2.52c-2.23-2.8-5.04-4.19-8.66-3.53c-4.54,0.83-6.7,4.36-9.08,7.92
			c-1.64,2.45-3.25,4.49-5.16,6.76c-1.08,0.8-1.89,1.8-2.45,3.01c-0.66-0.73-1.45-1.25-2.36-1.58
			c-9.96-0.63-15.36,12.22-20.59,19.21c2.58,0.8,5.16,1.6,7.73,2.4c-0.36-5.73-3.15-13.59-10.61-11.88
			c-7.37,1.69-11.26,12.18-12.09,18.59c-0.58,4.48,6.76,5.74,7.85,1.36c0.71-2.84,5.98-15.99,6.46-8.37
			c0.26,4.18,5.14,5.86,7.73,2.4c1.88-2.51,3.76-5.02,5.64-7.53c1.02-1.36,4.16-7.2,5.72-7.5c-0.08,0.02,3.05,1.56,3.52,1.61
			c1.16,0.11,2.5-0.26,3.56-0.72c3.7-1.59,7-6.14,9.4-9.3c1.33-1.75,2.39-4.05,3.82-5.7c3.7-4.26,2.88-1.29,4.97,1.2
			c4.52,5.38,9.88,3.54,13.27-2.16c1.96-3.29,2.82-9.44,7.05-10.35c1.9-0.41,4.94,1.51,6.98,1.84c2.21,0.36,3.9,0.25,6.07-0.24
			C1294.2,346.77,1292.33,339.38,1287.33,340.17L1287.33,340.17z"/>
	</g>
	<g>
		<path class="st6" d="M981.52,417.63c2.38,7.42,6.1,13.74,11.62,19.25c2.59,2.59,7.01,0.98,7.26-2.7
			c0.39-5.64-0.28-10.8-2.27-16.12c-2.16,1.54-4.32,3.07-6.47,4.61c5.65,4.6,11.31,9.2,16.96,13.8c3.75,3.05,7.51-2.22,6.11-5.68
			c-2.35-5.83-4.71-11.66-7.06-17.49c-2.33,1.67-4.66,3.33-6.99,5c4.56,4.01,9.22,7.9,14.08,11.56c3.68,2.77,7.73,6.79,12.52,6.92
			c9.59,0.25,9.6-14.84,9.63-21.39c-2.53,0.94-5.06,1.88-7.6,2.82c3.66,4.62,7.32,9.23,10.97,13.85c2.43,3.07,7.49,0.77,7.62-2.83
			c0.17-4.58,0.29-9.16,0.37-13.75c-2.55,0.95-5.09,1.89-7.64,2.84c3.97,3.8,10.89,13.97,17.55,11.51
			c6.07-2.24,4.36-12.43,4.61-17.34c-2.56,0.95-5.12,1.9-7.68,2.85c0.85,0.94,1.7,1.87,2.54,2.81c2.68,2.95,7.38,0.88,7.68-2.85
			c0.37-4.54,0.73-9.09,1.1-13.63c-2.79,0.65-5.57,1.29-8.36,1.94c4.71,9.69,13.71,19.02,24.5,11.23c3.81-2.75-0.76-9.06-4.78-6.69
			c-6,3.55-9.84-4.53-11.89-8.74c-2.02-4.14-8.03-2.26-8.36,1.94c-0.36,4.55-0.72,9.09-1.08,13.64c2.56-0.95,5.12-1.9,7.68-2.85
			c-0.85-0.93-1.7-1.87-2.55-2.8c-2.62-2.88-7.49-0.94-7.68,2.85c-0.09,1.86-0.18,3.72-0.27,5.58c-0.06,1.17,0.37,8.9,0.42,3.74
			c0.03-2.82,0.1-2.41-2.19-4.59c-1.6-1.53-3.2-3.06-4.8-4.59c-2.65-2.53-7.57-1.17-7.64,2.84c-0.07,4.58-0.19,9.17-0.35,13.75
			c2.54-0.94,5.08-1.89,7.62-2.83c-3.66-4.61-7.33-9.22-10.99-13.83c-2.37-2.99-7.58-0.83-7.6,2.82c-0.01,3.26,0.01,6.79-0.84,9.97
			c-1.13,4.23-1.29,2.26-4.44,0c-5.5-3.95-10.75-8.18-15.84-12.64c-3.76-3.29-8.88,0.35-6.99,5c2.37,5.82,4.73,11.65,7.1,17.47
			c2.04-1.89,4.08-3.79,6.11-5.68c-5.66-4.59-11.32-9.17-16.99-13.76c-3.78-3.06-7.39,2.23-6.08,5.65c1.62,4.25,2.1,8.27,1.85,12.8
			c2.42-0.9,4.84-1.8,7.26-2.7c-4.57-4.44-7.84-9.34-9.88-15.41C987.76,410.9,979.92,412.64,981.52,417.63L981.52,417.63z"/>
	</g>
	<g>
		<path class="st6" d="M1101.84,414.69c0.39,0.04,0.77,0.04,1.16,0.08c-0.46-0.08-0.93-0.16-1.4-0.24c0.84,0.2,1.69,0.35,2.55,0.44
			c-0.44-0.08-0.88-0.15-1.32-0.23c0.98,0.22,2.05,0.56,3.04,0.54c1.85-0.04,3.46-0.93,4.26-2.64c0.78-1.66,0.48-3.63-0.76-5.01
			c-0.67-0.75-1.55-1.29-2.38-1.85c0.33,0.27,0.65,0.54,0.98,0.82c-0.63-0.55-1.26-1.1-1.96-1.56c0.35,0.29,0.69,0.58,1.04,0.86
			c-0.29-0.25-0.55-0.52-0.84-0.78c-1.56-1.38-3.35-2.17-5.48-1.67c-1.73,0.41-3.07,1.57-3.81,3.16c-0.76,1.63-0.77,3.46,0.1,5.07
			C1098.02,413.54,1099.81,414.5,1101.84,414.69L1101.84,414.69z"/>
	</g>
	<g>
		<path class="st6" d="M1129.63,415.27c0.29,0.22,0.59,0.45,0.88,0.67c0.32,0.15,0.64,0.3,0.96,0.45c0.54,0.19,1.08,0.23,1.63,0.13
			c0.37,0.01,0.72-0.07,1.04-0.24c0.51-0.15,0.96-0.41,1.35-0.8c0.22-0.27,0.45-0.54,0.67-0.8c0.15-0.32,0.3-0.64,0.45-0.96
			c0.19-0.54,0.23-1.08,0.13-1.63c0-0.55-0.15-1.06-0.43-1.54c-0.2-0.31-0.41-0.62-0.61-0.93c-0.36-0.66-0.85-1.19-1.48-1.59
			c-0.65-0.41-1.37-0.63-2.14-0.66c-0.38,0.04-0.76,0.07-1.14,0.11c-0.73,0.18-1.38,0.52-1.93,1.03c-0.43,0.37-0.74,0.82-0.94,1.35
			c-0.29,0.5-0.43,1.05-0.43,1.64c-0.03,0.77,0.14,1.5,0.51,2.18C1128.51,414.33,1129,414.86,1129.63,415.27L1129.63,415.27z"/>
	</g>
	<g>
		<path class="st6" d="M1136.89,431.97c0.02,0.06,0.05,0.12,0.07,0.17c0.23,0.33,0.47,0.65,0.7,0.98c0.27,0.32,0.59,0.58,0.95,0.78
			c0.18,0.11,0.38,0.2,0.58,0.27c0.19,0.12,0.39,0.21,0.6,0.27c0.05,0.02,0.11,0.03,0.16,0.05c-0.36-0.17-0.71-0.33-1.07-0.5
			c0.11,0.06,0.22,0.12,0.32,0.18c0.37,0.2,0.74,0.41,1.14,0.54c0.4,0.13,0.83,0.16,1.25,0.22c0.59,0.04,1.15-0.06,1.67-0.31
			c0.54-0.15,1.01-0.43,1.42-0.84c0.24-0.28,0.47-0.56,0.71-0.85c0.41-0.66,0.64-1.38,0.67-2.15c-0.01-0.21-0.03-0.42-0.06-0.63
			c-0.01-0.21-0.03-0.43-0.06-0.64c-0.07-0.37-0.28-0.8-0.45-1.18c-0.05-0.11-0.1-0.22-0.15-0.34c0.14,0.37,0.28,0.74,0.42,1.1
			c-0.13-0.48-0.22-0.9-0.49-1.38c-0.09-0.19-0.21-0.36-0.36-0.52c-0.31-0.52-0.74-0.94-1.27-1.26c-0.05-0.03-0.11-0.06-0.17-0.08
			c-0.36-0.17-0.72-0.34-1.09-0.51c-0.61-0.22-1.22-0.27-1.84-0.15c-0.42-0.01-0.81,0.08-1.18,0.27c-0.58,0.17-1.09,0.47-1.52,0.9
			c-0.25,0.3-0.5,0.61-0.76,0.91c-0.17,0.36-0.34,0.72-0.51,1.09c-0.22,0.61-0.27,1.22-0.15,1.84
			C1136.41,430.85,1136.58,431.43,1136.89,431.97L1136.89,431.97z"/>
	</g>
	<g>
		<path class="st6" d="M1146.72,445.22c-0.04,0.04-0.08,0.09-0.12,0.13c-0.27,0.32-0.54,0.65-0.81,0.97
			c-0.18,0.39-0.36,0.78-0.54,1.16c-0.23,0.65-0.28,1.31-0.16,1.97c-0.02,0.45,0.08,0.87,0.29,1.26c0.1,0.42,0.3,0.8,0.6,1.12
			c0.21,0.38,0.49,0.69,0.86,0.92c0.3,0.32,0.65,0.54,1.07,0.68c0.58,0.33,1.21,0.5,1.89,0.5c0.44-0.04,0.88-0.09,1.32-0.13
			c0.4-0.15,0.8-0.3,1.2-0.46c0.34-0.25,0.69-0.49,1.03-0.74c0.27-0.32,0.54-0.65,0.81-0.97c0.18-0.39,0.36-0.78,0.54-1.16
			c0.23-0.65,0.28-1.31,0.16-1.97c0.02-0.45-0.08-0.87-0.29-1.26c-0.18-0.62-0.5-1.17-0.97-1.63c-0.04-0.05-0.07-0.09-0.11-0.14
			c-0.42-0.48-0.92-0.83-1.51-1.05c-0.56-0.32-1.17-0.48-1.83-0.48c-0.43,0.04-0.85,0.08-1.28,0.12
			C1148.06,444.26,1147.34,444.65,1146.72,445.22L1146.72,445.22z"/>
	</g>
	<g>
		<path class="st6" d="M1402.47,424.21c3.73,0.99,7.47,1.14,11.26,1.81c4.77,0.84,8.11,3.05,12.29,5.29
			c-1.46-2.77-2.91-5.54-4.37-8.31c-3.07,23.46,10.07,46.04,11.62,69.17c0.8,11.96-1.12,25.95,4.12,37.11
			c5.09,10.86,9.23,22.08,14.04,33.09c2.29,5.23,10.47,1.89,9.21-3.49c-1.39-5.94-3.23-11.78-4.39-17.77
			c-1.19-6.16-1.05-11.2-0.97-17.35c0.08-6.16-1.41-12.43-1.62-18.63c-0.2-6-0.23-11.96-0.83-17.94
			c-1.1-10.82-3.94-21.24-6.68-31.74c-2.97-11.42-4.7-22.56-5.91-34.28c-0.3-2.92-3.51-6.23-6.34-6.82
			c-9.6-2.03-23.29-2.72-32.18,2.08C1398.65,418.1,1398.88,423.26,1402.47,424.21L1402.47,424.21z"/>
	</g>
	<g>
		<path class="st6" d="M1379.51,453.79c4.6,3.56,8.49,7.69,11.81,12.47c1.64-1.98,3.28-3.95,4.91-5.93
			c-3.51-1.6-7.01-3.2-10.52-4.81c-3.15-1.44-5.79,2.18-5.33,4.95c1.64,9.92,4.62,19.32,8.88,28.42c2.01-1.86,4.01-3.73,6.02-5.59
			c-2.83-1.39-5.64-3.21-8.75-3.78c-2.02-0.37-3.64,0.11-4.89,1.78c-2.47,3.31-1.01,7.5-0.46,11.28c0.96,6.54,1.92,13.09,2.89,19.63
			c2.18-1.55,4.36-3.1,6.54-4.65c-3.12-2.56-6.23-5.12-9.35-7.67c-2.54-2.09-6.76,0.45-6.69,3.52c0.22,9.59,1.34,19.01,3.45,28.37
			c2.7-1.02,5.4-2.05,8.1-3.07c-2.76-6.61-6.7-12.21-11.98-17.04c-2.15-1.97-6.69-1.86-7.38,1.66c-2.5,12.75-0.75,25.52,6.4,36.51
			c2.91,4.47,10.16,0.8,7.43-3.98c-5.29-9.28-7.56-19.3-5.49-29.89c-2.46,0.55-4.92,1.11-7.38,1.66c4.81,4.4,8.18,9.21,10.69,15.22
			c1.95,4.66,9.17,1.64,8.1-3.07c-1.94-8.6-3.04-17.22-3.24-26.04c-2.23,1.17-4.46,2.35-6.69,3.52c3.13,2.54,6.25,5.08,9.38,7.63
			c3.23,2.63,7.04-1.36,6.54-4.65c-0.64-4.2-1.27-8.4-1.91-12.61c-0.29-1.89-2.77-10.34-1.74-11.73c-1.63,0.59-3.26,1.19-4.89,1.78
			c2.37,0.43,4.63,1.78,6.77,2.82c3.74,1.81,7.95-1.51,6.02-5.59c-3.99-8.44-6.66-17.13-8.22-26.33c-1.78,1.65-3.55,3.3-5.33,4.95
			c3.51,1.59,7.02,3.17,10.54,4.76c3.18,1.44,6.93-3.05,4.91-5.93c-4.18-5.97-9.01-10.9-14.92-15.17
			C1379.57,444.17,1375.57,450.74,1379.51,453.79L1379.51,453.79z"/>
	</g>
	<g>
		<path class="st6" d="M1401.06,533.55c0.87,4.43,1.65,8.88,2.17,13.37c0.24,2.08,1.38,5.87,0.7,7.84c0.47,1.9,0.08,2.02-1.19,0.38
			c-0.99-0.92-2.05-1.77-3.17-2.53c-2.76-2.08-6.31,0.48-6.58,3.46c-0.91,10.05-1.01,19.97-0.11,30.02c0.32,3.62,4.18,5.94,7.21,3.3
			c3.64-3.16,2.89-7.78-0.76-10.49c-2.88-2.13-6.18,0.54-6.6,3.47c-1.52,10.68-2.39,21.46-1.94,32.26c0.22,5.19,8.04,5.64,8.18,0.3
			c0.3-10.82,0.85-21.51,2.36-32.24c-2.2,1.16-4.4,2.31-6.6,3.47c-0.16-1.02-0.31-2.04-0.47-3.06c2.4,1.1,4.81,2.2,7.21,3.3
			c-0.92-10.03-0.96-20,0.08-30.02c-2.19,1.15-4.38,2.31-6.58,3.46c4.21,3.3,13.47,6.86,16.97,0.64c1.61-2.86,0.64-6.5,0.31-9.55
			c-0.69-6.49-1.8-12.88-3.22-19.26C1407.89,526.51,1400.04,528.38,1401.06,533.55L1401.06,533.55z"/>
	</g>
	<g>
		<path class="st6" d="M437.9,516.14c-6.38-4.1-13.32-7.86-19.16-12.71c-4.55-3.78-9.58,1.99-9.05,6.44
			c0.72,6.13,2.09,12.25,2.47,18.41c3.71-1.95,7.41-3.9,11.12-5.85c-8.14-5.31-17.64-8.19-25.35-14.25
			c-4.26-3.34-12.48-0.54-13.5,4.92c-0.77,4.17-1.38,8.31-1.78,12.53c-0.27,2.87-2.04,8.94-1.02,11.61c-0.49,2.6,0.31,2.13,2.42-1.4
			c-0.84-0.3-1.67-0.59-2.51-0.89c-1.32-0.91-3.48-1.3-4.97-1.91c-3.73-1.52-7.34-3.26-10.87-5.19
			c-10.23-5.59-28.97-20.75-38.39-6.24c-1.76,2.71-1.42,6.65,0.82,8.99c3.23,3.37,6.67,3.94,10.92,5.36
			c4.48,1.5,8.37,4.48,12.43,6.84c8.26,4.83,17.35,9.39,26.57,12.07c8.78,2.55,18.42,0.91,22.02-8.58
			c3.25-8.57,2.43-21.12,2.06-30.12c-3.93,2.77-7.85,5.54-11.78,8.31c9.58,4.39,18.12,9.93,28.79,11.31
			c4.44,0.57,8.71-4.67,7.32-8.9c-2.13-6.45-3.3-13.21-5.08-19.77c-2.55,2.37-5.1,4.73-7.65,7.1c6.67,2.38,13.08,6.27,19.4,9.45
			C438.16,526.2,442.82,519.3,437.9,516.14L437.9,516.14z"/>
	</g>
	<g>
		<path class="st6" d="M276.2,399.8c0.76-2.35,0.81-3.99-0.5-6.18c-0.44-0.74-4.65-5.25-5.51-4.03c-2.54-0.79-5.08-1.58-7.62-2.37
			c0.18,5.41,0.35,10.83,0.54,16.24c0.14,3.99,5.34,6.04,7.68,2.39c1.9-2.97,3.8-5.93,5.7-8.9c-2.55-0.79-5.11-1.59-7.66-2.38
			c0.46,4.98,1.52,9.32,3.51,13.91c1.05,2.42,4.7,2.85,6.48,1.08c4.4-4.38,8.8-8.76,13.2-13.13c-2.31-1.06-4.63-2.12-6.94-3.18
			c0.39,4.75-0.67,11.77,4.16,14.43c1.76,0.97,3.47,0.72,5.01-0.46c2.83-2.15,5.12-5.69,7.42-8.42c-2.27-0.69-4.53-1.38-6.8-2.07
			c3.69,10.67,15.94,12.81,22.63,3.48c3.08-4.29-3.84-8.65-6.91-4.39c-2.57-0.33-5.15-0.65-7.72-0.98c-0.88-2.56-4.59-4.68-6.8-2.07
			c-2.32,2.75-4.55,6.23-7.43,8.41c1.67-0.15,3.34-0.31,5.01-0.46c-0.03-0.02-0.33-7.19-0.32-7.16c-0.26-3.3-4.16-5.94-6.94-3.18
			c-4.41,4.37-8.82,8.74-13.22,13.11c2.16,0.36,4.32,0.72,6.48,1.08c-1.4-3.24-2.19-6.17-2.51-9.69c-0.35-3.85-5.23-6.17-7.66-2.38
			c-1.91,2.96-3.81,5.92-5.72,8.89c2.56,0.8,5.12,1.59,7.68,2.39c-0.19-5.42-0.4-10.83-0.61-16.24c-0.15-4.07-5.19-5.85-7.62-2.37
			c-1.51,2.17-1.91,3.98-0.85,6.54c0.33,0.81,5.91,6.72,6.22,5.69C267.13,402.34,274.63,404.71,276.2,399.8L276.2,399.8z"/>
	</g>
	<g>
		<path class="st6" d="M478.44,662.95c-1.34,1.14-2.88,1.92-4.6,2.35c-7.47,1.96-3.52,13.33,3.81,10.06
			c3.34-1.49,6.19-1.71,9.59-2.56c3.71-0.93,2.14,0.12,2.76,4.14c0.93,5.99,2.66,11.8,5.07,17.36c4.94,11.4,13.4,19.53,21.04,29.04
			c8.91,11.1,5.68,22.31,1,34.53c-5.2,13.57-10.72,27.02-16.08,40.52c-4.77,12.02,14.4,17.98,19.13,6.04
			c6.77-17.06,15.38-34.34,19.95-52.14c4.51-17.56,0.04-31.87-11.64-45.3c-5.2-5.98-10.51-11.47-14.12-18.62
			c-1.96-3.89-3.37-7.93-4.34-12.17c-0.82-3.63-0.73-7.71-2.41-11.09c-7.16-14.39-29.41-7.39-37.1,2.56
			c3.05,1.94,6.11,3.88,9.16,5.82c0.75-1.69,1.87-3.06,3.35-4.12C486.29,666.44,482.22,660.32,478.44,662.95L478.44,662.95z"/>
	</g>
	<g>
		<path class="st6" d="M483.34,716.14c-2.2-2.47-4.94-4.96-8.43-5.13c-3.65-0.18-4.08,1.81-6.71,3.32
			c-5.2,2.97-11.81-2.55-17.54,1.99c-1.81,1.44-3.24,6.35-4.94,6.59c-0.01,0-3.38-2.95-3.54-3.05c-1.26-0.76-2.68-1.24-4.12-1.48
			c-9.6-1.65-19.63,13.12-27.02,2.53c-3-4.31-9.55-1.05-7.3,3.91c3,6.63,10.55,10.4,17.73,8.75c4.4-1.02,7.61-4.73,11.87-5.78
			c4.92-1.21,7.14,3.81,11.62,4.62c2.82,0.51,5.28-0.41,7.32-2.41c3.77-3.72,2.48-7.44,9.14-5.93c2.68,0.6,5.54,1.44,8.28,0.66
			c1.14-0.32,2.28-0.88,3.2-1.64c2.4-1.96,1.35-4.57,4.48-1.42C481.07,725.39,486.83,720.06,483.34,716.14L483.34,716.14z"/>
	</g>
	<g>
		<path class="st6" d="M480.76,752.64c-1.86,4.54-2.88,8.01-9.05,5.97c-0.89-0.29-1.57-1.46-2.54-1.74
			c-2.92-0.82-5.15-1.35-8.18-0.26c-3.29,1.18-5.22,3.67-7.85,5.77c-6.3,5.01-10.59,1.41-16.71-1.46
			c-5.01-2.35-11.61-4.03-16.23,0.18c-4,3.65-4.03,9.17-0.69,13.11c3.51,4.14,9.06-1.43,6.03-5.6c1.65-0.29,3.29-0.59,4.94-0.88
			c1.14,0.52,2.29,1.04,3.43,1.56c1.62,0.77,3.19,1.66,4.84,2.37c2.62,1.12,5.36,2.17,8.25,2.3c7.14,0.32,9.15-4.56,14.47-7.7
			c5.17-3.05,10.14,3.69,16.24,1.81c6-1.84,8.7-7.57,10.81-12.98C490.45,750.18,482.74,747.85,480.76,752.64L480.76,752.64z"/>
	</g>
	<g>
		<path class="st6" d="M441.62,694.77c0.35,1.65,1.34,3.11,2.47,4.31c0.61,0.55,1.24,1.07,1.9,1.57c0.56,0.43,0.24,0.19-0.96-0.71
			c0.22,0.28,0.58,0.55,0.83,0.8c1.67,1.59,3.28,2.67,5.5,3.37c2.11,0.66,3.96,0.62,6.14,0.36c-2.19-0.37-4.38-0.74-6.56-1.11
			c0.41,0.23,0.8,0.48,1.22,0.7c0.62,0.29,1.25,0.58,1.87,0.87c-2.8-2.77-3.78-3.51-2.94-2.21c0.34,0.76,0.89,1.49,1.32,2.2
			c2.3,3.78,8,4.47,10.49,0.39c1.09-1.8,1.68-3.81,1.58-5.92c-0.06-0.81-0.14-1.61-0.25-2.41c0.04,1.21,0.09,1.43,0.16,0.65
			c0.15-0.94-0.19-2.47-0.53-3.46c-0.06,1.52-0.11,3.03-0.17,4.55c0.61-3.09,0.65-5.72-1.07-8.53c-1.11-1.82-2.26-3.19-4.11-4.29
			c-1.51-0.95-3.15-1.46-4.93-1.53c2.04,0.38,2.17,0.42,0.36,0.1C447.78,683.39,440.09,687.48,441.62,694.77L441.62,694.77z"/>
	</g>
	<g>
		<path class="st6" d="M496.84,744.24c0.19,0.02,0.37,0.03,0.56,0.05c-1.62-0.74-3.23-1.48-4.85-2.22c0.07,0.08,0.15,0.16,0.22,0.24
			c-0.34-0.47-0.67-0.94-1.01-1.41c0.88,1.49,1.85,2.97,3.41,3.84c2.83,1.58,5.91,0.83,7.82-1.75c1.09-1.47,1.3-3.29,1.5-5.05
			c-0.1,0.6-0.21,1.19-0.31,1.79c0.04-0.11,0.07-0.21,0.11-0.32c-1.12,1.35-2.24,2.7-3.35,4.04c1.57-0.85,3.01-1.95,3.98-3.48
			c1.22-1.92,1.82-4.8,1.19-7.03c-1.26-4.43-5.15-7.4-9.82-6.94c-2.06,0.2-3.79,0.99-5.36,2.33c-1.67,1.42-2.94,4.2-2.93,6.39
			C488.04,739.89,491.7,743.81,496.84,744.24L496.84,744.24z"/>
	</g>
	<g>
		<path class="st6" d="M494.39,792.23c0.02-0.04,0.03-0.08,0.04-0.12c-0.2,0.44-0.41,0.87-0.61,1.31c0.3-0.47,0.54-0.97,0.72-1.5
			c0.28-0.79,0.34-1.59,0.2-2.39c-0.09-0.9-0.11-1.51-0.68-2.36c0.19,0.49,0.37,0.99,0.56,1.48c-0.01-0.07-0.01-0.13-0.02-0.2
			c-0.29-1.19-0.84-2.23-1.67-3.12c-0.45-0.38-0.91-0.76-1.36-1.14c-1.06-0.67-2.21-1.03-3.46-1.08c-0.95-0.07-1.85,0.09-2.69,0.5
			c-0.87,0.25-1.63,0.7-2.28,1.35c-0.7,0.6-1.2,1.33-1.52,2.18c-0.46,0.81-0.7,1.69-0.7,2.65c-0.04,1.25,0.23,2.43,0.82,3.53
			c0.04,0.05,0.07,0.11,0.11,0.16c-0.22-0.97-0.45-1.94-0.67-2.9c0.1,1.18,0.13,2,0.7,3.08c0.68,1.26,1.9,2.28,3.27,2.72
			c0.38,0.12,1.12,0.25,1.52,0.26c0.85,0.03,1.9-0.17,2.62-0.6c0.81-0.48,1.31-1.03,1.91-1.78c-0.28,0.34-0.56,0.67-0.84,1.01
			c0.02-0.03,0.05-0.05,0.08-0.07c-0.37,0.27-0.74,0.53-1.11,0.8c0.02-0.01,0.04-0.02,0.05-0.03c-0.44,0.17-0.89,0.34-1.33,0.5
			c1.25-0.45,1.53-0.48,2.54-1.37c0.06-0.05,0.1-0.1,0.16-0.15c-2.69-0.1-5.37-0.2-8.06-0.3c0.03,0.03,0.05,0.06,0.08,0.09
			c1.55,1.87,4.38,2.57,6.68,2.03c2.29-0.54,4.38-2.36,5.02-4.66c0.02-0.08,0.04-0.15,0.06-0.23c-1.46,1.36-2.92,2.72-4.39,4.07
			c0.5-0.17,1.15-0.37,1.61-0.63c-1.44,0.13-2.88,0.27-4.32,0.4c0.02,0.01,0.03,0.02,0.05,0.02c-0.43-0.2-0.87-0.4-1.3-0.61
			c0.02,0.01,0.04,0.02,0.06,0.03c0.83,0.53,1.75,0.81,2.73,0.85c0.75,0.06,1.46-0.08,2.12-0.39
			C492.73,795.03,493.77,793.86,494.39,792.23L494.39,792.23z"/>
	</g>
	<g>
		<path class="st6" d="M408.62,778.62c0.19,0.82,0.35,1.55,0.81,2.33c0.48,0.82,1.04,1.5,1.77,2.1c0.68,0.56,1.57,1.19,2.46,1.36
			c-1.48-1.6-2.97-3.2-4.45-4.79c0.57,1.77,1.36,3.44,3.03,4.43c-0.9-1.26-1.8-2.53-2.7-3.79c0.01,0.05,0.02,0.11,0.02,0.16
			c-0.05-0.54-0.11-1.08-0.16-1.63c0,0.79,0.04,1.56,0.17,2.35c-0.05-0.5-0.1-1-0.15-1.5c0,0.05-0.01,0.1-0.01,0.15
			c0.08-0.49,0.17-0.97,0.25-1.46c-0.16,0.68-0.28,1.37-0.34,2.07c-0.09,1.06,0.34,2.16,0.94,3c0.66,0.93,1.43,1.39,2.48,1.85
			c2.28,1,5.43-0.17,7.01-1.88c-1.48,0.55-2.95,1.1-4.43,1.65c0.35-0.03,1.39-0.09,1.73-0.17c0.87-0.21,1.6-0.62,2.31-1.13
			c1.36-0.97,1.96-2.12,2.6-3.62c-1.6,1.48-3.2,2.97-4.79,4.45c0.02-0.01,0.04-0.01,0.06-0.02c1.2-0.29,2.24-0.85,3.15-1.68
			c0.9-0.84,1.53-1.84,1.91-3.02c0.29-1.56,0.52-2.42,0.15-4c-0.17-0.74-0.46-1.47-0.84-2.13c-1.76-3.03-5.32-4.44-8.63-3.18
			C409.75,771.74,407.82,775.2,408.62,778.62L408.62,778.62z"/>
	</g>
	<g>
		<path class="st6" d="M387.91,736.31c0.22,0.55,0.68,1.05,1.02,1.5c-0.26-0.36-0.52-0.73-0.78-1.09c0.02,0.03,0.04,0.06,0.06,0.09
			c-0.16-0.42-0.32-0.84-0.48-1.26c0.32,1.43,1.09,2.74,2.22,3.67c1.1,0.92,2.44,1.45,3.89,1.5c1.05,0.04,2.04-0.3,2.88-0.9
			c0.8-0.57,1.51-1.4,1.77-2.38c0.22-0.82,0.25-1.66,0.09-2.5c-0.24-1.25-1.11-2.14-2.05-2.89c-0.03-0.02-0.06-0.05-0.09-0.07
			c0.31,0.26,0.62,0.52,0.93,0.78c-0.09-0.08-0.16-0.16-0.24-0.25c0.24,0.34,0.48,0.67,0.72,1.01c-0.09-0.13-0.16-0.26-0.22-0.4
			c0.15,0.4,0.31,0.81,0.46,1.21c-0.2-0.52-0.39-1.04-0.61-1.55c0.16,0.41,0.31,0.82,0.47,1.23c-0.07-0.2-0.11-0.39-0.13-0.59
			c0.04,0.46,0.09,0.92,0.13,1.37c-0.01-0.08-0.01-0.16,0-0.24c-0.27,0.86-0.54,1.72-0.8,2.59c0.02-0.03,0.03-0.06,0.05-0.09
			c-0.29,0.34-0.57,0.69-0.86,1.03c0.06-0.07,0.13-0.13,0.2-0.19c-0.38,0.27-0.76,0.54-1.14,0.82c0.05-0.03,0.1-0.06,0.15-0.09
			c0.84-0.47,1.55-1.16,2.1-1.95c0.44-0.63,0.68-1.32,0.75-2.07c0.15-0.49,0.17-0.99,0.06-1.5c0.02-0.51-0.09-0.99-0.33-1.44
			c-0.12-0.48-0.34-0.91-0.68-1.27c-0.69-0.96-1.68-1.82-2.86-2.13c-1.93-0.51-4.05-0.14-5.54,1.25c-0.31,0.37-0.62,0.74-0.92,1.11
			c-0.44,0.63-0.68,1.32-0.75,2.07c-0.15,0.49-0.17,0.99-0.06,1.5C387.32,734.94,387.52,735.65,387.91,736.31L387.91,736.31z"/>
	</g>
	<g>
		<path class="st6" d="M433.72,743.75c0.59,0.51,1.2,1.02,1.68,1.57c-0.5-1.34-1-2.68-1.5-4.02c0.06,2.1,0.4,4.12,1.89,5.72
			c1.53,1.65,3.69,2.74,5.95,2.79c0.43,0.05,0.86,0.03,1.29-0.06c0.98-0.09,1.23-0.11,0.75-0.08c-0.46-0.01,0.82,0.1,0.95,0.11
			c1.15,0.11,2.27,0.27,3.44,0.25c4.81-0.09,6.89-6.19,2.79-8.98c-0.83-0.57-1.71-1.21-2.62-1.65c-0.87-0.73-0.83-0.64,0.1,0.28
			c-0.35-0.63-0.78-1.2-1.28-1.7c-2.68-2.88-6.96-3.55-10.29-1.42c1.45-0.14,2.89-0.27,4.34-0.41c-0.82-0.15-1.45-0.4-2.22-0.72
			C434.41,733.53,429.91,740.46,433.72,743.75L433.72,743.75z"/>
	</g>
</g>
<g id="TRAÇADO_00000067921745171482688380000006419650350476975267_">
	<path class="st7" d="M1648.28,571.75l-14.25,7.93c2.91-34.02-30.12-101.58-30.12-101.58c19.5-2.01,48.47-82.59,48.47-82.59
		l22.58,13.27l47-64.63l-13.74-13.68l-127.29-79.23l-35.65,45.89l-8.45-29.58l-77.76,39c-1.21-4.65-3.86-8.86-7.62-11.98
		c-4.98-4.14-11.54-6.01-17.94-5.13l-38.76,5.3c-3.6-14.36-7.15-23.58-7.52-24.52l-2.13-5.38l-94.99,8.16l-1.22,33.03l-110.41,37.32
		l-13.44-55.67l-130.25,61.22l-0.78,21.02c-16.22,0.57-54.58,3.54-78.73,18.64l-7.99-18.04l-1.08-1.06
		c-47.11-45.51-51.78-46.85-53.76-47.43c-3.05-0.87-7.64-2.21-67.14,26.1l-6.36,3.02l11.65,31.94l-153.31,41.57
		c-29.42-30.84-66.69-48.36-106.75-49.84c-32.19-1.19-63.34,8.09-90.75,26.62l-5.55-17.87l-102.92-9.5l0-0.02l0.93-10.84
		l-123.82-30.3l-16.4,113.2l29.47-6.13c-12.94,32.84-41.65,117.71-25.92,190.65l-27.82-1.03L197.51,750.6l47.46,74.69l132.34,4.88
		l120.88,1.62l52.23-21.54c18.44,10.55,64-12.21,64-12.21l5.74,19.63l78.73-27.84l89.6,44.58l107.92-32.44l133.99-9.02l-0.89,24.24
		l120.4,9.9c0,0,12.59-44.46,14.58-49.1l197.07,19.88l138.57-51.34l-12.49-89.69l43.05-49.37c3.95,7.41,7.19,13.26,9.4,17.18
		l-37.03,34.17l42.3,76.66l15.91,20.81l127.42-97.5l-11.44-20.03L1648.28,571.75z M1552.09,321.01l17.55,16.64
		c-7.24,7.43-12.11,17.83-29.4,39.65c-5.98-9.05-10.96-16.29-14.33-21.1l30.11-21.45L1552.09,321.01z M1435.6,304.8
		c2.15-0.29,4.27,0.31,5.94,1.69c1.69,1.41,2.68,3.39,2.79,5.58c0.67,13.1,0.86,31.72-1.89,46.08
		c-3.61,18.76-16.61,21.38-18.81,21.69l-22.63,0.3c3.32-25.69,0.81-50.6-2.92-70.21L1435.6,304.8z M1454.76,395.54
		c2.43,23.42,8.39,48.43,16.14,73.07c-1.81,2.94-3.63,5.95-5.47,8.98c-3.03-25.97-17.86-61.65-24.75-77.16L1454.76,395.54z
		 M527.24,766.31l-5.84,14.54l-1.18,2.95l-31.66,11.26l-99.49,3.05l-17.44-140.12l21.47,9.29l1.49-40.29
		c-0.89-4.84-1.63-9.72-2.19-14.66l0-0.02l-58.99-65.05l-7.01,87.57l-11.05-2.81l-4.63,14.8l25.57,7.35l2.18,129.44l-25.63,5.9
		l-59.42-3.18l-39.88-41.41l8.39-99.27l33.94,1.25l-2.85-10.23c-24.31-86.93,27.82-202.9,28.34-204.06l6.35-13.91l-37.17,7.74
		l10.76-74.39l94.35,23.07l-3.23,37.42l-32.94,10.31l38.61,44.53c2.47,5.8,7.67,19.3,8.09,26.82l1.33,23.6l28.23-43.34l1.46-39.63
		l-11.14,4.57c-4.95,2.04-14.47,6.35-21.32,11.98l-18.05-20.82l20.28-6.34l2.99-34.7l92.53,8.55l4.12,13.24l5.02,16.13l3.11,10.01
		l-16.87,3.69l0,0.02l-24.26,5.31l-9.38,2.06l3.39,6.64l1.17,2.31c0.25,0.49,0.51,1,0.75,1.53c0.56,1.17,1.12,2.45,1.69,3.8
		c0.23,0.57,0.47,1.17,0.72,1.8c0.01,0.06,0.04,0.13,0.07,0.19c0.17,0.41,0.33,0.83,0.5,1.27c0.31,0.82,0.64,1.67,0.95,2.53
		c0.15,0.44,0.32,0.9,0.48,1.35c0.32,0.9,0.65,1.82,0.95,2.77c0.03,0.05,0.04,0.09,0.06,0.14l0,0.02
		c15.75,46.9,33.02,150.07,37.71,179.18l-0.88,13.73l25.43,1.62l38.66,77.41L527.24,766.31z M643.53,768.84l-0.92-7.09l-2.23-17.24
		c-24.83,17.58-53.81,27.21-84.43,26.08c-4.48-0.17-8.88-0.56-13.25-1.17l2.85-7.09l7.31-18.21l-45.75-91.63l-18.85-1.21
		c-4.57-28.65-23.97-146-41.69-191.8l47.98-10.52l-9.93-31.95c25.02-17.97,54.34-27.86,85.34-26.72
		c37.04,1.37,70.5,18.24,96.37,45.34c2,2.09,3.95,4.24,5.86,6.45c23.22,26.98,39.39,62.63,45.19,102.61l0.02,0.2l0.62,7.72
		l0.36-0.03c1.19,10.95,1.62,22.18,1.2,33.63c-0.59,16.05-2.81,31.57-6.44,46.35l0,0.02l-34.89,7.25c-4.3,0.9-7,5.17-5.95,9.43
		c0.85,3.43,3.85,5.77,7.24,5.9c0.6,0.02,1.23-0.02,1.85-0.15l34.64-7.18l2.96,17.62l0,0.02l13.16,78.44L643.53,768.84z
		 M846.44,545.77l19.14-7.19l16.36-37.25l14.74,19.73l1.98,123.41l-21.53-0.79l-3.13-9.47l-42.87,12.37l26.02-77.19L846.44,545.77z
		 M878.09,470.26l-33.17,21.44l-9.16,25.51l-31.91,12.54l14.63,43.83l-31.25,93.63l47.59,26.03l-3.93-30.46l33.07-9.55l20.85,63.05
		l-18.02,50.4l-78.81,20.5l-50.82-28.6l12.59-3.54l-8.09-48.22l0-0.12l-4.28-25.41l31.36-115.98l-14.54-35.66l-22.41,6.95
		c-0.02-0.22-0.06-0.42-0.1-0.64c-6.08-35.34-19.97-68.12-40.73-95.31c-0.78-1.02-1.57-2.03-2.36-3.02l162.33-44.03l-12.6-34.51
		c20.63-9.66,43-19.45,50.23-21.57c6.55,4.99,27.26,24.2,45.75,42.03l39.45,89.19l-62.41,46.07L878.09,470.26z M742.93,549.39
		l2.29-0.71l7.18,17.65l-9.43,34.85C743.5,580.17,743.15,558.94,742.93,549.39z M1125.87,774.92l-1.25,0.78
		c-10.5-0.57-33.45-2.68-55.88-4.99l0.85-23l-153.67,7.12l-3.56-221.46L993,473.85l-31.39-70.93c25.6-17.9,79.22-17.63,79.79-17.63
		l7.54,0.08l0.98-26.46l104.5-49.11l14.59,60.42l-13.4,12.23l2.66,5.26c8.33,16.46,12.85,57.96,14.34,78.15l-64.27,29.2l-22.12,6.74
		l-11.73-31.89l-6.93,1.99c-1.36,0.4-33.75,9.96-53.34,35.28l-7.07,9.14l11.15,3.08c8,2.2,16.47,5.56,19.08,7.5l7.5,3.13l7.73-15.74
		l19.61-5.64l4.51,12.25l26.22-8l-2.58,70.11l-19.68,8.38l-32.78-8.48l-6.43-17.02l-7.59,3.58c-26.46,12.49-46.79,7.77-55.48,5.74
		c-2.37-0.55-3.92-0.9-5.47-0.96c-2.85-0.11-5.53,1.36-7.13,3.71c-2.51,3.66-3.63,6.33,11.97,45.68
		c7.13,17.96,14.68,35.66,14.75,35.85l2.14,5l98.28-5.61l-10.25-51.49l52.32-22.27l37.8,21.85
		C1157.73,661,1132.67,750.85,1125.87,774.92z M1155,490.88l-3.17,86.07l-15.8-9.13l-3.51,1.5l4.2-70.13L1155,490.88z
		 M1074.23,644.41l-50.13,2.87l-15.92-35.96c9.78-1.76,20.53-3.99,20.53-3.99l5.93,10.84l34.62,1.28L1074.23,644.41z
		 M1258.64,745.12l-105.31-10.75c10.02-35.79,23.68-84.77,36.01-129.02l1.61-5.79l-23.94-13.84l3.76-102.01l17.95-8.16l-0.3-5.3
		c-0.14-2.46-3.38-56.75-13.92-84.06l11.72-10.69l-4.1-17l121.85-41.19l1.11-30.01l69.59-5.98c4.93,14.93,17.28,58.53,10.2,102.11
		l-63.51,42.06l-3.83-68.74L1222,445.97l64.72,33.74l-9.63-41.84l28.78-11.95l1.52,27.4l15.28-10.12l21.59,64.01l-42.12,19.9
		l-8.89-20.45l-72.31,42.71l1.13,5.42c0.14,0.77,15.61,76.32,4.85,110.81l-2.87,9.25l38.06,3.11L1258.64,745.12z M1346.74,437.93
		l10.75-6.38l-7.16,21.67L1346.74,437.93z M1346.51,464.79l-0.09,0.28l-0.07-0.19L1346.51,464.79z M1263.1,662.51l-8.74-0.71
		c8.24-45.52-2.25-101.07-2.25-101.07l25.75-9.37l10.72,22.25l29.53-10.45l-19.67,84.19l-33.76-5.32L1263.1,662.51z M1357.55,749.28
		l-83.44-3.08l3.87-75.08l0-0.08l0.87-11.09l31.42,4.96l32.69-139.94l20.4-9.64l-8.71-25.81l0-0.02l20.9-63.2
		c27.59-13.7,47.75-5.87,53.73-2.87c28.28,66.86,11.8,204.15,7.1,238.3l-20.96-3.69l-2.69,15.27l21.33,3.75l12.07,2.12l4.15,0.73
		l3.49,40.94L1357.55,749.28z M1550.42,712.53l-27.9-50.58l32.63-30.13c2.68-2.46,3.28-6.46,1.44-9.6
		c-0.16-0.27-3.3-5.69-8.32-14.97c-5-9.26-11.88-22.39-19.51-38.07c-2.5-5.12-5.06-10.52-7.67-16.14
		c-3.5,4.96-6.99,9.84-10.44,14.63c-22.07,30.68-42.49,57.72-56.24,75.63c3.51-29.86,7.88-78.71,6.3-126.63
		c5.58-10.02,11.13-19.62,16.64-28.77c3.57-5.95,7.1-11.71,10.63-17.29c-2.15-6.49-4.17-13-6.03-19.5
		c-6.62-22.94-11.3-45.74-12.54-66.65l-0.6-10.23l-19.91,6.94c3.92-5.01,7.14-11.59,8.78-20.11c2.25-11.71,2.73-25.63,2.56-37.76
		l66.84-33.53l10.94,38.3l-34.1,24.06l4.78,6.57c5.97,8.18,13.42,18.94,21.6,31.43c2.91,4.47,5.91,9.17,8.98,14.04
		c3.44-4.59,6.78-8.93,9.99-13.03c26.88-34.41,36.51-47.67,36.84-47.99l5.96-5.63l-33.69-31.97l26.24-33.78l102.16,63.58
		l-27.57,43.49l-29.62-20.76l-2.56,11.26c-5.17,22.81-23.29,57.3-46.42,94.75c-3.15,5.1-6.4,10.25-9.71,15.43
		c2.73,5.51,5.35,11.02,7.85,16.53c18.68,41.13,30.07,80.95,20.63,104.94l-7.94,20.14l49.44-27.53l17.27,39.91L1550.42,712.53z"/>
	<path class="st7" d="M621.2,525.87c2.67-3.35,2.13-8.22-1.21-10.9c-1.34-1.09-2.93-1.64-4.54-1.7c-2.37-0.09-4.75,0.91-6.34,2.9
		l-36.26,45.22c-2.89,3.62-8.27,3.9-11.53,0.63l-38.68-38.84c-3.02-3.03-7.94-3.04-10.97-0.02c-1.45,1.44-2.22,3.32-2.29,5.21
		c-0.08,2.08,0.68,4.18,2.25,5.76l41.15,41.29c2.78,2.8,3.02,7.25,0.55,10.32l-33.79,42.16c-2.68,3.34-2.15,8.22,1.2,10.89l0,0.02
		c3.35,2.67,8.22,2.13,10.9-1.2l31.63-39.46c2.88-3.6,8.27-3.9,11.53-0.63l30.08,30.19c3.02,3.04,7.92,3.05,10.97,0.03
		c3.03-3.02,3.04-7.94,0.02-10.97l-32.54-32.66c-2.78-2.8-3.02-7.23-0.55-10.32L621.2,525.87z"/>
</g>
</svg>
